Coordinates
version=1
nRows=30
nColumns=38
inDegrees=no

Units are S.I. units (second, meters, Newtons, ...)
If the header above contains a line with 'inDegrees', this indicates whether rotational values are in degrees (yes) or radians (no).

endheader
time	pelvis_tilt	pelvis_list	pelvis_rotation	pelvis_tx	pelvis_ty	pelvis_tz	hip_flexion_r	hip_adduction_r	hip_rotation_r	knee_angle_r	ankle_angle_r	subtalar_angle_r	mtp_angle_r	hip_flexion_l	hip_adduction_l	hip_rotation_l	knee_angle_l	ankle_angle_l	subtalar_angle_l	mtp_angle_l	lumbar_extension	lumbar_bending	lumbar_rotation	arm_flex_r	arm_add_r	arm_rot_r	elbow_flex_r	pro_sup_r	wrist_flex_r	wrist_dev_r	arm_flex_l	arm_add_l	arm_rot_l	elbow_flex_l	pro_sup_l	wrist_flex_l	wrist_dev_l
0.55	0.809803	1.46767	-2.38662	0.913003	1.03792	0.914945	-0.206688	-0.200056	-0.25058	0.726707	0.0235534	0	0	0.323509	0.0365984	-0.310881	0.416258	0.134482	0	0	-0.153231	-0.132222	-0.0910686	-0.27025	-0.174687	-0.0534266	0.65637	0.442797	0	0	-0.233324	-0.298686	0.197192	0.666553	1.36263	0	0
0.56	0.888376	1.466	-2.45602	0.916397	1.02556	0.915736	-0.171507	-0.217666	-0.244979	0.791362	-0.0475407	0	0	0.314395	0.0499129	-0.30586	0.415251	0.13918	0	0	-0.144004	-0.140041	-0.100454	-0.27561	-0.172417	-0.0487093	0.651103	0.441589	0	0	-0.237681	-0.306447	0.202093	0.67564	1.3535	0	0
0.57	0.95714	1.46451	-2.5158	0.919736	1.01335	0.916456	-0.135597	-0.232805	-0.23579	0.853829	-0.112918	0	0	0.303362	0.0627853	-0.300161	0.411323	0.145813	0	0	-0.135215	-0.146383	-0.109363	-0.28212	-0.170348	-0.0461594	0.649345	0.440979	0	0	-0.241338	-0.314372	0.206223	0.685356	1.34767	0	0
0.58	1.01313	1.46227	-2.56257	0.923005	1.00129	0.917248	-0.100305	-0.246462	-0.225557	0.91348	-0.178852	0	0	0.289818	0.0759478	-0.292097	0.405124	0.153006	0	0	-0.128012	-0.152155	-0.118321	-0.289214	-0.168336	-0.0448808	0.64995	0.441137	0	0	-0.244462	-0.323317	0.211414	0.696844	1.34152	0	0
0.59	1.04225	1.45866	-2.58309	0.926112	0.989516	0.918347	-0.0678595	-0.258532	-0.21548	0.969086	-0.240456	0	0	0.272684	0.0881634	-0.283368	0.397773	0.159354	0	0	-0.124806	-0.157233	-0.126698	-0.295856	-0.166453	-0.0449013	0.652747	0.442546	0	0	-0.245881	-0.332911	0.217054	0.708798	1.33581	0	0
0.6	1.04331	1.45405	-2.57717	0.929011	0.978235	0.919808	-0.0384007	-0.268541	-0.20432	1.01952	-0.293021	0	0	0.252398	0.0984296	-0.276202	0.390065	0.164546	0	0	-0.126283	-0.161161	-0.133786	-0.300966	-0.164906	-0.0462967	0.657335	0.444941	0	0	-0.244586	-0.342199	0.221833	0.719463	1.33154	0	0
0.61	1.014	1.44881	-2.54193	0.931685	0.967325	0.921705	-0.0141038	-0.275131	-0.192286	1.06269	-0.325951	0	0	0.228208	0.106368	-0.268867	0.381159	0.168755	0	0	-0.132651	-0.163256	-0.140319	-0.304272	-0.163772	-0.0481276	0.662388	0.448752	0	0	-0.240947	-0.350993	0.225556	0.728643	1.32882	0	0
0.62	0.958253	1.44276	-2.48146	0.934126	0.956757	0.924049	0.00608099	-0.278355	-0.178854	1.10128	-0.331635	0	0	0.199179	0.111924	-0.2616	0.369001	0.171315	0	0	-0.143721	-0.163404	-0.146284	-0.305674	-0.16307	-0.0502268	0.667277	0.456488	0	0	-0.235446	-0.359295	0.228365	0.736862	1.32774	0	0
0.63	0.903838	1.4387	-2.42407	0.936272	0.9463	0.926347	0.0285715	-0.27776	-0.163477	1.13915	-0.310532	0	0	0.17171	0.113415	-0.259246	0.35799	0.174576	0	0	-0.153201	-0.161388	-0.15094	-0.305701	-0.16324	-0.0503361	0.66988	0.462749	0	0	-0.229232	-0.365318	0.226568	0.741196	1.3323	0	0
0.64	0.854415	1.43586	-2.3717	0.938347	0.936043	0.928602	0.052622	-0.275186	-0.148507	1.17398	-0.277929	0	0	0.145193	0.113179	-0.258599	0.346115	0.177484	0	0	-0.161385	-0.158278	-0.15575	-0.304807	-0.16406	-0.048681	0.670797	0.466483	0	0	-0.222172	-0.370156	0.22273	0.74275	1.34058	0	0
0.65	0.807624	1.43384	-2.32156	0.94042	0.92593	0.93083	0.07649	-0.271048	-0.134923	1.20188	-0.246848	0	0	0.118939	0.112186	-0.2575	0.332602	0.180054	0	0	-0.168746	-0.154226	-0.160918	-0.303659	-0.165353	-0.0462039	0.67065	0.46989	0	0	-0.214159	-0.374437	0.219073	0.74221	1.34869	0	0
0.66	0.765524	1.43254	-2.27484	0.942648	0.916019	0.933023	0.0998126	-0.266257	-0.12435	1.22228	-0.224035	0	0	0.0932963	0.111077	-0.255331	0.317544	0.181922	0	0	-0.175267	-0.149522	-0.167438	-0.302255	-0.167001	-0.0429339	0.669548	0.472503	0	0	-0.205388	-0.37836	0.215887	0.740078	1.35501	0	0
0.67	0.730365	1.43169	-2.23384	0.945075	0.906286	0.935146	0.122497	-0.261862	-0.116647	1.23632	-0.206317	0	0	0.0679208	0.110827	-0.251062	0.299893	0.182199	0	0	-0.180792	-0.144697	-0.174992	-0.301031	-0.168866	-0.0392186	0.667993	0.473264	0	0	-0.195761	-0.381728	0.212667	0.736379	1.36027	0	0
0.68	0.697253	1.43163	-2.19432	0.947506	0.896667	0.937125	0.144882	-0.256709	-0.110511	1.24538	-0.186998	0	0	0.0435499	0.110364	-0.244715	0.28163	0.182356	0	0	-0.185336	-0.139258	-0.182782	-0.300476	-0.170889	-0.0348215	0.667167	0.471522	0	0	-0.185464	-0.384649	0.209406	0.731426	1.36446	0	0
0.69	0.663928	1.43224	-2.15435	0.949865	0.88716	0.938944	0.166832	-0.250727	-0.105763	1.24993	-0.164488	0	0	0.0203007	0.109229	-0.237051	0.263621	0.182358	0	0	-0.189217	-0.133134	-0.190689	-0.300421	-0.173109	-0.0291838	0.667088	0.468992	0	0	-0.17495	-0.387633	0.206698	0.726464	1.36671	0	0
0.7	0.631514	1.43313	-2.11518	0.95215	0.877737	0.940635	0.187893	-0.244557	-0.102754	1.24962	-0.140568	0	0	-0.00243517	0.107729	-0.228319	0.245237	0.181699	0	0	-0.192517	-0.126848	-0.198445	-0.30067	-0.175155	-0.023456	0.666844	0.467579	0	0	-0.164241	-0.390577	0.20382	0.721803	1.36718	0	0
0.71	0.598775	1.43407	-2.07552	0.954342	0.868417	0.94224	0.207736	-0.238368	-0.101646	1.24432	-0.116125	0	0	-0.0251079	0.105965	-0.2182	0.225991	0.18004	0	0	-0.195727	-0.120367	-0.206385	-0.301029	-0.176924	-0.0179204	0.667212	0.465791	0	0	-0.153672	-0.393518	0.200377	0.718254	1.36513	0	0
0.72	0.565499	1.43489	-2.03484	0.956471	0.859191	0.943765	0.225772	-0.232506	-0.102948	1.23394	-0.0900044	0	0	-0.0478186	0.103877	-0.206925	0.20606	0.177459	0	0	-0.198897	-0.113743	-0.214524	-0.301714	-0.178046	-0.0140526	0.668156	0.46605	0	0	-0.142916	-0.3963	0.196236	0.714628	1.36151	0	0
0.73	0.531452	1.43538	-1.99327	0.958526	0.850066	0.945212	0.241867	-0.2271	-0.106064	1.2187	-0.0633981	0	0	-0.0706208	0.101484	-0.19467	0.185866	0.173984	0	0	-0.202231	-0.107057	-0.222572	-0.302426	-0.178478	-0.0119149	0.669664	0.467241	0	0	-0.131994	-0.398847	0.191436	0.711051	1.35851	0	0
0.74	0.49556	1.43555	-1.94953	0.960526	0.841034	0.946559	0.255945	-0.221873	-0.11089	1.19885	-0.0368977	0	0	-0.0929032	0.0984837	-0.181649	0.166767	0.170201	0	0	-0.205758	-0.100095	-0.23067	-0.30298	-0.178307	-0.0111806	0.671507	0.469245	0	0	-0.121094	-0.401355	0.186343	0.708301	1.35572	0	0
0.75	0.460781	1.43538	-1.90612	0.962517	0.832046	0.947772	0.267989	-0.21746	-0.118062	1.17459	-0.0110071	0	0	-0.114417	0.0951781	-0.167604	0.148963	0.166213	0	0	-0.209269	-0.0931636	-0.239533	-0.303387	-0.177563	-0.0116639	0.673618	0.472964	0	0	-0.110747	-0.404013	0.181131	0.706816	1.35212	0	0
0.76	0.427733	1.43507	-1.86426	0.964457	0.823126	0.94882	0.278487	-0.213691	-0.126942	1.14608	0.0124973	0	0	-0.134806	0.0914456	-0.153721	0.132933	0.162637	0	0	-0.212663	-0.0863567	-0.248682	-0.303452	-0.17629	-0.0133512	0.676126	0.477042	0	0	-0.101018	-0.40678	0.175898	0.706629	1.3488	0	0
0.77	0.39607	1.43484	-1.8249	0.966201	0.814186	0.949669	0.288011	-0.209613	-0.135725	1.11352	0.0329013	0	0	-0.154092	0.0873246	-0.141705	0.118424	0.159816	0	0	-0.215457	-0.079887	-0.256874	-0.303032	-0.174735	-0.0155654	0.678668	0.481931	0	0	-0.0918838	-0.40942	0.170353	0.707062	1.34585	0	0
0.78	0.367786	1.43459	-1.79022	0.967775	0.805302	0.950302	0.296764	-0.205547	-0.144153	1.07745	0.0482206	0	0	-0.172428	0.0835095	-0.130473	0.105099	0.157354	0	0	-0.217975	-0.0740111	-0.263982	-0.301823	-0.17325	-0.0176695	0.681246	0.487659	0	0	-0.0833252	-0.412199	0.164851	0.708863	1.34217	0	0
0.79	0.344621	1.4341	-1.76123	0.969278	0.796453	0.950728	0.304044	-0.202263	-0.153344	1.03779	0.0567258	0	0	-0.190289	0.0803666	-0.118594	0.092489	0.154816	0	0	-0.22051	-0.0689281	-0.270612	-0.299877	-0.171798	-0.0197284	0.683815	0.494509	0	0	-0.0750891	-0.415265	0.160135	0.711734	1.33789	0	0
0.8	0.326767	1.43345	-1.7369	0.970859	0.787712	0.950943	0.309608	-0.200544	-0.165276	0.994935	0.0584239	0	0	-0.207072	0.0777162	-0.106094	0.0816143	0.152651	0	0	-0.223301	-0.0643611	-0.277625	-0.297382	-0.170387	-0.0216928	0.687081	0.500763	0	0	-0.0663891	-0.418434	0.156246	0.71489	1.33429	0	0
0.81	0.295383	1.43291	-1.70433	0.973068	0.779091	0.95089	0.314336	-0.208504	-0.181549	0.949066	0.0640799	0	0	-0.222607	0.0796956	-0.0867996	0.0743501	0.14722	0	0	-0.225835	-0.0567875	-0.281405	-0.293155	-0.171527	-0.0225861	0.691037	0.505944	0	0	-0.0589587	-0.420074	0.152775	0.718708	1.33081	0	0
0.82	0.287304	1.43306	-1.6918	0.974433	0.770218	0.950557	0.318674	-0.209137	-0.198134	0.902212	0.0637096	0	0	-0.237007	0.0782062	-0.0777097	0.0662807	0.147483	0	0	-0.227134	-0.0538465	-0.286711	-0.289614	-0.171031	-0.0221781	0.694081	0.511387	0	0	-0.050935	-0.422873	0.148729	0.721936	1.32874	0	0
0.83	0.281096	1.43356	-1.68194	0.975628	0.761329	0.949965	0.322635	-0.209453	-0.215915	0.853847	0.0637696	0	0	-0.250443	0.0768725	-0.0699629	0.0596557	0.149432	0	0	-0.228006	-0.0513833	-0.291101	-0.285716	-0.170605	-0.0217607	0.69788	0.516412	0	0	-0.0426948	-0.425451	0.144821	0.724219	1.32802	0	0
0.84	0.275373	1.43413	-1.67352	0.976685	0.752474	0.949155	0.326018	-0.209059	-0.234607	0.803908	0.0639152	0	0	-0.263387	0.0755863	-0.0639853	0.0540026	0.152891	0	0	-0.228964	-0.0491681	-0.294171	-0.281582	-0.170447	-0.0210089	0.702799	0.519564	0	0	-0.0340946	-0.428139	0.142025	0.72657	1.3278	0	0
